<?xml version="1.0" encoding="UTF-8"?>
<svg id="Vrstva_1" xmlns="http://www.w3.org/2000/svg" version="1.1" viewBox="0 0 500 500">
  <!-- Generator: Adobe Illustrator 29.5.1, SVG Export Plug-In . SVG Version: 2.1.0 Build 141)  -->
  <defs>
    <style>
      .st0 {
        fill: #2e72b7;
      }

      .st0, .st1, .st2, .st3 {
        opacity: .78;
      }

      .st4 {
        fill: #173a67;
      }

      .st4, .st5 {
        opacity: .75;
      }

      .st1 {
        fill: #73bb7b;
      }

      .st6 {
        fill: #fff;
      }

      .st2 {
        fill: #71ba76;
      }

      .st3 {
        fill: #45a6de;
      }

      .st5 {
        fill: #42ae67;
      }
    </style>
  </defs>
  <path class="st3" d="M289.38,269.67l-157.3-40.86c-28.07-7.29-46.48-32.93-45.75-60.72,0-.03,0-.05,0-.07-.38-6.42.27-12.84,1.87-19,3.93-15.15,13.64-28.8,28.19-37.34l85.2-50.07c2.22-1.3,4.48-2.44,6.77-3.44,1.76-1.31,3.62-2.54,5.55-3.68,29.11-17.11,66.57-7.38,83.68,21.73l59.74,101.66c5.04,8.58,7.75,17.89,8.32,27.2,0,.06,0,.13.01.2.59,6.73.04,13.67-1.75,20.58-4.24,16.34-14.7,29.41-28.2,37.34-13.49,7.93-30,10.71-46.33,6.47Z"/>
  <path class="st2" d="M193.33,230.33l157.3,40.86c28.07,7.29,46.48,32.93,45.75,60.72,0,.03,0,.05,0,.07.38,6.42-.27,12.84-1.87,19-3.93,15.15-13.64,28.8-28.19,37.34l-85.2,50.07c-2.22,1.3-4.48,2.44-6.77,3.44-1.76,1.31-3.62,2.54-5.55,3.68-29.11,17.11-66.57,7.38-83.68-21.73l-59.74-101.66c-5.04-8.58-7.75-17.89-8.32-27.2,0-.06,0-.13-.01-.2-.59-6.73-.04-13.67,1.75-20.58,4.24-16.34,14.7-29.41,28.2-37.34,13.49-7.93,30-10.71,46.33-6.47Z"/>
  <path class="st0" d="M199.71,137.87l82.34,140.12c14.69,25,9.58,56.16-10.58,75.29-.02.02-.03.04-.05.05-4.27,4.81-9.26,8.89-14.76,12.12-13.49,7.93-30.01,10.72-46.34,6.47l-95.65-24.84c-2.49-.65-4.89-1.44-7.22-2.36-2.17-.31-4.35-.76-6.53-1.32-32.68-8.48-52.29-41.86-43.8-74.54l29.64-114.13c2.5-9.64,7.17-18.13,13.35-25.11.04-.05.08-.1.13-.15,4.35-5.18,9.63-9.7,15.79-13.32,14.55-8.55,31.19-10.4,46.34-6.46,15.15,3.93,28.79,13.64,37.34,28.19Z"/>
  <path class="st1" d="M432.18,213.95l-99.11,128.8c-17.69,22.98-48.49,29.9-73.78,18.37-.03-.01-.05-.01-.07-.03-6.06-2.16-11.71-5.26-16.76-9.15-12.4-9.54-21.17-23.81-23.34-40.55l-12.77-98c-.33-2.55-.5-5.08-.52-7.58-.52-2.13-.93-4.32-1.22-6.55-4.37-33.48,19.24-64.16,52.73-68.52l116.93-15.23c9.87-1.29,19.5-.14,28.28,2.98.06.02.12.04.19.07,6.43,2.09,12.6,5.3,18.26,9.66,13.38,10.29,21.32,25.03,23.34,40.56,2.03,15.52-1.87,31.8-12.16,45.18Z"/>
  <path class="st5" d="M287.75,394.87l-82.34-140.12c-14.69-25-9.58-56.16,10.58-75.29.02-.02.03-.04.05-.05,4.27-4.81,9.26-8.89,14.76-12.12,13.49-7.93,30.01-10.72,46.34-6.47l95.65,24.84c2.49.65,4.89,1.44,7.22,2.36,2.17.31,4.35.76,6.53,1.32,32.68,8.48,52.29,41.86,43.8,74.54l-29.64,114.13c-2.5,9.64-7.17,18.13-13.35,25.11-.04.05-.08.1-.13.15-4.35,5.18-9.63,9.7-15.79,13.32-14.55,8.55-31.19,10.4-46.34,6.46-15.15-3.93-28.79-13.64-37.34-28.19Z"/>
  <path class="st4" d="M283,149.68l82.34,140.12c14.69,25,9.58,56.16-10.58,75.29-.02.02-.03.04-.05.05-4.27,4.81-9.26,8.89-14.76,12.12-13.49,7.93-30.01,10.72-46.34,6.47l-95.65-24.84c-2.49-.65-4.89-1.44-7.22-2.36-2.17-.31-4.35-.76-6.53-1.32-32.68-8.48-52.29-41.86-43.8-74.54l29.64-114.13c2.5-9.64,7.17-18.13,13.35-25.11.04-.05.08-.1.13-.15,4.35-5.18,9.63-9.7,15.79-13.32,14.55-8.55,31.19-10.4,46.34-6.46,15.15,3.93,28.79,13.64,37.34,28.19Z"/>
  <rect class="st6" x="210.41" y="175.61" width="92.49" height="154" rx="46.24" ry="46.24" transform="translate(-103.45 255.47) rotate(-45)"/>
</svg>