<?xml version="1.0" encoding="UTF-8" standalone="no"?>
<!-- Created with Inkscape (http://www.inkscape.org/) -->

<svg
   viewBox="0 0 1385.174 415.45676"
   version="1.1"
   id="svg1"
   xml:space="preserve"
   xmlns="http://www.w3.org/2000/svg"
   xmlns:svg="http://www.w3.org/2000/svg"><defs
     id="defs1"><style
       id="style1">
      .st0 {
        fill: #2e72b7;
      }

      .st0, .st1, .st2, .st3 {
        opacity: .78;
      }

      .st4 {
        fill: #173a67;
      }

      .st4, .st5 {
        opacity: .75;
      }

      .st1 {
        fill: #73bb7b;
      }

      .st6 {
        fill: #fff;
      }

      .st2 {
        fill: #71ba76;
      }

      .st3 {
        fill: #45a6de;
      }

      .st5 {
        fill: #42ae67;
      }
    </style></defs><g
     id="layer1"
     transform="translate(-63.989865,-169.41288)"><path
       style="fill:currentColor;fill-opacity:1;stroke-width:0.847199"
       d="m 581.4897,361.11945 c -15.0648,-2.39885 -26.92689,-9.44036 -31.71551,-18.82684 -1.93858,-3.79992 -4.29033,-12.08276 -4.29033,-15.11046 0,-1.91663 0.12545,-1.94 10.41424,-1.94 h 10.41424 l 0.99266,3.71145 c 2.00166,7.48397 8.76526,12.40175 19.3917,14.09958 16.12136,2.57581 29.80357,-4.6431 27.9119,-14.72665 -1.35522,-7.2239 -6.39531,-9.91764 -27.18854,-14.53112 -19.27896,-4.27753 -23.62813,-5.96552 -29.634,-11.50153 -13.17968,-12.1486 -10.40061,-37.25531 5.22099,-47.16785 12.45109,-7.90073 34.24446,-9.0525 50.4469,-2.66609 11.3406,4.47006 18.71016,13.96643 20.59558,26.53941 l 0.58231,3.88302 h -10.55205 -10.55204 l -1.07444,-3.60059 c -2.45104,-8.21388 -12.58333,-13.31039 -24.28901,-12.2173 -10.56292,0.98638 -16.40761,5.62783 -16.41419,13.03504 -0.007,7.41616 5.70328,10.88508 24.11138,14.64843 23.62204,4.8293 33.13931,10.15199 38.16121,21.3423 1.96489,4.37834 2.34739,6.37499 2.31226,12.0704 -0.0993,16.13934 -9.10849,26.677 -26.8878,31.45019 -5.0185,1.34733 -22.90805,2.31266 -27.95746,1.50861 z m 687.8071,-0.37335 c -19.8626,-3.31985 -35.9095,-16.89718 -41.9619,-35.50395 -2.523,-7.75627 -3.1408,-25.39154 -1.1959,-34.13378 4.5388,-20.40092 18.8589,-35.5904 38.6753,-41.02305 7.4869,-2.05253 25.313,-2.01144 32.9072,0.0756 10.0965,2.77494 16.0242,6.26314 23.8858,14.05531 11.6521,11.5492 16.2821,23.25232 16.2669,41.1166 -0.026,14.92348 -3.8325,26.48709 -12.0063,36.34753 -12.7315,15.3587 -34.6179,22.73481 -56.5711,19.0655 z m 26.951,-21.26479 c 12.6779,-5.87127 19.3371,-17.78522 19.3371,-34.59606 0,-11.53187 -3.0507,-19.84417 -10.0163,-27.29095 -6.8384,-7.31087 -15.8522,-10.52096 -27.3324,-9.73408 -8.2283,0.56397 -14.3401,3.21222 -20.318,8.80393 -8.0644,7.54331 -11.3793,17.01656 -10.7504,30.72185 0.6408,13.96242 5.047,22.90665 14.3089,29.04503 7.3257,4.85509 10.9287,5.79935 21.0675,5.52106 7.4997,-0.20582 9.6503,-0.59359 13.7036,-2.47078 z m 90.1966,20.87609 c -15.893,-3.15837 -26.0668,-12.13722 -29.7425,-26.24931 -2.3202,-8.90812 -2.807,-8.44585 8.8908,-8.44397 l 10.1893,0.002 0.816,2.9652 c 2.6018,9.45382 11.8054,14.71507 25.8246,14.76229 12.0875,0.0407 19.7771,-3.74331 21.6361,-10.64717 0.8052,-2.99071 0.6749,-3.91277 -1.0385,-7.34135 -2.9629,-5.92934 -5.5565,-6.95908 -34.5763,-13.72837 -14.9812,-3.49456 -23.3556,-8.88874 -27.4077,-17.65407 -2.6482,-5.72904 -2.634,-19.96902 0.026,-25.72628 6.1901,-13.39938 22.82,-21.1472 42.6141,-19.85396 23.3242,1.52388 37.0972,11.93348 39.5596,29.89927 l 0.5063,3.69385 h -10.6107 -10.611 l -0.565,-3.01243 c -1.4527,-7.74364 -12.0709,-12.94986 -24.4951,-12.01023 -11.0084,0.83256 -16.6409,5.12951 -16.6409,12.69499 0,3.75287 0.3525,4.57132 3.1769,7.37378 3.4166,3.39 5.5377,4.09421 26.8985,8.93033 18.9874,4.29876 27.7294,9.40439 32.3317,18.88301 2.0815,4.28635 2.3539,5.81111 2.377,13.31272 0.025,7.42848 -0.2505,9.06212 -2.2198,13.2632 -6.0378,12.87856 -21.9311,20.32581 -42.9418,20.12145 -4.5019,-0.0437 -10.8008,-0.59933 -13.9972,-1.23458 z M 688.65997,340.79003 v -18.34 l -7.92163,-13.64168 c -9.21055,-15.86124 -29.32389,-51.35039 -31.37851,-55.36604 l -1.40877,-2.7534 h 11.84177 11.84177 l 5.10619,9.10737 c 2.80839,5.00904 9.01645,16.44619 13.79571,25.41588 4.77923,8.96967 8.88552,16.28312 9.12506,16.25207 0.23955,-0.0309 1.70256,-2.60437 3.25106,-5.71855 1.54854,-3.11418 7.62327,-14.52595 13.49937,-25.35946 l 10.68386,-19.69731 h 12.12832 c 6.67058,0 12.12832,0.1671 12.12832,0.3715 0,0.20434 -9.34033,16.68696 -20.75632,36.62805 l -20.7563,36.25655 V 341.53752 359.13 h -10.58993 -10.58997 z m 81.33081,-35.88057 v -54.22055 l 10.80176,0.0503 10.80173,0.0503 8.46461,11.59878 c 9.79434,13.42088 41.72492,58.06961 43.70968,61.1195 1.25004,1.92092 1.38123,0.51978 1.90446,-20.34008 0.30906,-12.32171 0.56272,-29.17007 0.56366,-37.44082 l 0.002,-15.03773 h 10.58995 10.58995 v 54.22052 54.22055 h -10.88823 -10.88827 l -6.66493,-9.53094 c -12.26445,-17.5383 -45.39441,-63.73647 -46.60755,-64.99204 -1.03402,-1.07016 -1.19865,3.96239 -1.19865,36.64123 v 37.88175 h -10.58994 -10.58995 z m 117.76023,53.61813 c 0,-0.33132 2.47115,-6.52645 5.49141,-13.76694 3.02028,-7.24047 10.04425,-24.41106 15.60883,-38.15681 5.56456,-13.74576 12.96276,-31.85456 16.44046,-40.24179 l 6.32304,-15.24952 12.68484,-0.23332 12.68482,-0.23329 3.85847,8.70517 c 4.9338,11.13127 20.72027,49.15737 36.499,87.91802 l 4.65582,11.43712 -11.1202,0.23755 c -6.11612,0.1307 -11.52617,0.0816 -12.02231,-0.10864 -0.49616,-0.19034 -2.57419,-4.96748 -4.61788,-10.61571 l -3.71578,-10.26957 h -20.62896 c -11.34592,0 -20.62131,-0.0954 -20.61196,-0.21182 0.10534,-1.31423 4.19954,-16.14789 4.55502,-16.50335 0.26309,-0.26306 6.77612,-0.39918 14.47346,-0.30245 11.61374,0.14586 13.99518,-0.0293 13.99518,-1.02836 0,-1.00951 -4.88974,-14.33625 -15.29337,-41.68136 -1.06367,-2.79575 -2.20623,-5.40015 -2.53902,-5.78758 -0.33278,-0.38741 -1.65119,2.09062 -2.92978,5.50678 -5.54934,14.82676 -13.88896,36.52335 -21.60017,56.19574 -4.56616,11.64896 -8.55607,22.03769 -8.86645,23.08608 -0.54894,1.8542 -0.87488,1.90619 -11.9444,1.90619 -6.25904,0 -11.38007,-0.27106 -11.38007,-0.6024 z M 1020.7608,304.85324 V 250.5765 l 31.1344,0.28655 c 30.151,0.27748 31.2881,0.34796 35.9967,2.23163 10.4384,4.17581 17.4472,11.3881 20.7145,21.31572 2.1278,6.46505 2.1278,21.49242 0,27.95746 -3.4514,10.4872 -11.7094,18.61157 -22.5718,22.20659 -4.8743,1.61323 -7.8823,1.876 -24.8202,2.16822 l -19.2737,0.33257 V 343.10261 359.13 h -10.59 -10.5899 z m 58.0812,1.68713 c 5.7345,-2.95109 9.0817,-8.39298 9.5343,-15.50094 0.4757,-7.47077 -0.9596,-11.86301 -5.2925,-16.19592 -4.9097,-4.90964 -8.8465,-5.69852 -26.7408,-5.3584 l -13.9787,0.2657 -0.2276,19.21593 -0.2275,19.21591 2.3455,0.40109 c 1.2901,0.22058 8.6611,0.3342 16.3802,0.25247 13.2065,-0.13986 14.2807,-0.27526 18.2071,-2.29584 z m 77.4701,7.68823 v -44.90138 h -17.3675 -17.3675 v -9.31915 -9.31916 h 45.7486 45.7486 v 9.31916 9.31915 h -17.3676 -17.3675 V 314.2286 359.13 h -11.0135 -11.0136 z"
       id="path1" /><path
       style="fill:currentColor;fill-opacity:1;stroke-width:1.31568"
       d="m 887.43005,498.08534 c -16.83683,-5.25756 -26.60541,-19.93791 -26.60541,-39.98303 0,-13.09033 2.66413,-20.84011 9.94994,-28.9437 7.8562,-8.73796 16.63651,-12.48515 29.52045,-12.59847 12.33339,-0.10835 22.7274,4.38947 28.11785,12.16795 4.22728,6.09995 4.31406,7.60212 0.49819,8.62475 -5.3017,1.42078 -6.96271,0.88867 -9.23534,-2.95855 -3.17465,-5.37427 -9.70477,-8.05333 -19.62966,-8.05333 -6.1032,0 -10.00524,0.81024 -14.25607,2.96027 -19.5399,9.88303 -20.41796,43.55181 -1.48253,56.84843 5.22071,3.66605 6.59948,4.00175 16.4348,4.00175 9.02341,0 11.6805,-0.52796 16.65658,-3.30975 l 5.92059,-3.30974 0.38656,-9.51811 0.38655,-9.51814 h -11.67948 c -6.42372,0 -11.97216,-0.29265 -12.32986,-0.65033 -0.3577,-0.3577 -0.38917,-2.42992 -0.0699,-4.60492 l 0.58048,-3.95452 h 16.9545 16.95449 v 15.651 15.65101 l -6.79287,4.35896 c -13.34598,8.56411 -27.61569,11.09301 -40.27977,7.13847 z M 689.78627,457.91729 v -41.06724 l 20.06411,0.52619 c 18.64335,0.48892 20.59551,0.78311 27.56856,4.15443 7.98485,3.86051 12.5432,8.39996 17.22746,17.15602 2.45822,4.59507 2.89739,7.5098 2.89739,19.2306 0,12.4251 -0.35161,14.4763 -3.49546,20.39302 -4.42086,8.32003 -9.23093,12.8828 -17.55542,16.65275 -5.68448,2.57433 -9.30482,3.04999 -26.64253,3.50031 l -20.06411,0.52114 z m 44.3861,27.70081 c 16.43334,-9.33812 20.00606,-33.88183 7.12294,-48.93288 -6.33037,-7.3956 -11.49891,-9.23829 -28.15571,-10.03793 l -14.14357,-0.67895 v 31.90459 31.90465 l 14.80138,-0.49621 c 12.66055,-0.4244 15.60759,-0.95426 20.37496,-3.66327 z m 70.07805,-27.70081 V 417.1312 h 4.60487 4.60486 v 36.67457 c 0,20.17101 0.37006,38.52474 0.82234,40.78607 0.81463,4.07328 0.77183,4.11152 -4.60492,4.11152 h -5.42715 z m 176.08181,2.63133 c -0.1205,-20.98508 -0.26863,-39.19079 -0.32895,-40.45714 -0.0843,-1.77514 0.945,-2.30245 4.49527,-2.30245 h 4.60485 l 0.34794,40.45717 0.34793,40.45716 h -4.62388 -4.62391 z m 77.84437,2.63137 v -35.52335 h -13.8146 -13.8147 v -5.26272 -5.26272 h 32.2341 32.2342 v 5.26272 5.26272 h -13.1568 -13.1568 v 35.52335 35.52337 h -5.2627 -5.2627 z m 64.4683,34.90057 c 0,-0.42571 2.6287,-7.12042 5.8416,-14.87703 15.0568,-36.35038 25.4494,-61.67121 26.1734,-63.76987 0.6105,-1.76957 2.2798,-2.30246 7.2121,-2.30246 h 6.4177 l 8.6686,20.72195 c 4.7678,11.39709 12.5194,29.78178 17.2258,40.85489 l 8.557,20.13292 -6.135,-0.39775 -6.1349,-0.3977 -3.5613,-8.55192 -3.5613,-8.55192 h -21.3763 -21.3764 l -3.4708,8.55192 c -3.4325,8.45741 -3.5317,8.55638 -8.9755,8.95647 -3.0276,0.22251 -5.5047,0.0563 -5.5047,-0.3695 z m 55.2586,-28.7644 c 0,-1.80951 -14.7915,-38.46999 -16.0154,-39.69386 -0.7406,-0.74073 -15.561,37.21271 -15.561,39.85018 0,1.16934 4.2609,1.60158 15.7882,1.60158 12.2962,0 15.7882,-0.38882 15.7882,-1.7579 z m 63.1526,-11.39887 V 417.1312 h 5.2627 5.2627 v 36.18117 36.18122 h 22.2258 c 23.6579,0 24.5436,0.24935 22.9217,6.45149 -0.7033,2.68949 -1.4065,2.75828 -28.1971,2.75828 h -27.4758 z"
       id="path2" /><g
       id="g2"
       transform="translate(12.848948,127.36257)"><path
         class="st3"
         d="m 289.38,269.67 -157.3,-40.86 c -28.07,-7.29 -46.48,-32.93 -45.75,-60.72 0,-0.03 0,-0.05 0,-0.07 -0.38,-6.42 0.27,-12.84 1.87,-19 3.93,-15.15 13.64,-28.8 28.19,-37.34 l 85.2,-50.07 c 2.22,-1.3 4.48,-2.44 6.77,-3.44 1.76,-1.31 3.62,-2.54 5.55,-3.68 29.11,-17.11 66.57,-7.38 83.68,21.73 l 59.74,101.66 c 5.04,8.58 7.75,17.89 8.32,27.2 0,0.06 0,0.13 0.01,0.2 0.59,6.73 0.04,13.67 -1.75,20.58 -4.24,16.34 -14.7,29.41 -28.2,37.34 -13.49,7.93 -30,10.71 -46.33,6.47 z"
         id="path1-9" /><path
         class="st2"
         d="m 193.33,230.33 157.3,40.86 c 28.07,7.29 46.48,32.93 45.75,60.72 0,0.03 0,0.05 0,0.07 0.38,6.42 -0.27,12.84 -1.87,19 -3.93,15.15 -13.64,28.8 -28.19,37.34 l -85.2,50.07 c -2.22,1.3 -4.48,2.44 -6.77,3.44 -1.76,1.31 -3.62,2.54 -5.55,3.68 -29.11,17.11 -66.57,7.38 -83.68,-21.73 L 125.38,322.12 c -5.04,-8.58 -7.75,-17.89 -8.32,-27.2 0,-0.06 0,-0.13 -0.01,-0.2 -0.59,-6.73 -0.04,-13.67 1.75,-20.58 4.24,-16.34 14.7,-29.41 28.2,-37.34 13.49,-7.93 30,-10.71 46.33,-6.47 z"
         id="path2-9" /><path
         class="st0"
         d="m 199.71,137.87 82.34,140.12 c 14.69,25 9.58,56.16 -10.58,75.29 -0.02,0.02 -0.03,0.04 -0.05,0.05 -4.27,4.81 -9.26,8.89 -14.76,12.12 -13.49,7.93 -30.01,10.72 -46.34,6.47 l -95.65,-24.84 c -2.49,-0.65 -4.89,-1.44 -7.22,-2.36 -2.17,-0.31 -4.35,-0.76 -6.53,-1.32 -32.68,-8.48 -52.29,-41.86 -43.8,-74.54 L 86.76,154.73 c 2.5,-9.64 7.17,-18.13 13.35,-25.11 0.04,-0.05 0.08,-0.1 0.13,-0.15 4.35,-5.18 9.63,-9.7 15.79,-13.32 14.55,-8.55 31.19,-10.4 46.34,-6.46 15.15,3.93 28.79,13.64 37.34,28.19 z"
         id="path3" /><path
         class="st1"
         d="m 432.18,213.95 -99.11,128.8 c -17.69,22.98 -48.49,29.9 -73.78,18.37 -0.03,-0.01 -0.05,-0.01 -0.07,-0.03 -6.06,-2.16 -11.71,-5.26 -16.76,-9.15 -12.4,-9.54 -21.17,-23.81 -23.34,-40.55 l -12.77,-98 c -0.33,-2.55 -0.5,-5.08 -0.52,-7.58 -0.52,-2.13 -0.93,-4.32 -1.22,-6.55 -4.37,-33.48 19.24,-64.16 52.73,-68.52 l 116.93,-15.23 c 9.87,-1.29 19.5,-0.14 28.28,2.98 0.06,0.02 0.12,0.04 0.19,0.07 6.43,2.09 12.6,5.3 18.26,9.66 13.38,10.29 21.32,25.03 23.34,40.56 2.03,15.52 -1.87,31.8 -12.16,45.18 z"
         id="path4" /><path
         class="st5"
         d="M 287.75,394.87 205.41,254.75 c -14.69,-25 -9.58,-56.16 10.58,-75.29 0.02,-0.02 0.03,-0.04 0.05,-0.05 4.27,-4.81 9.26,-8.89 14.76,-12.12 13.49,-7.93 30.01,-10.72 46.34,-6.47 l 95.65,24.84 c 2.49,0.65 4.89,1.44 7.22,2.36 2.17,0.31 4.35,0.76 6.53,1.32 32.68,8.48 52.29,41.86 43.8,74.54 L 400.7,378.01 c -2.5,9.64 -7.17,18.13 -13.35,25.11 -0.04,0.05 -0.08,0.1 -0.13,0.15 -4.35,5.18 -9.63,9.7 -15.79,13.32 -14.55,8.55 -31.19,10.4 -46.34,6.46 -15.15,-3.93 -28.79,-13.64 -37.34,-28.19 z"
         id="path5" /><path
         class="st4"
         d="m 283,149.68 82.34,140.12 c 14.69,25 9.58,56.16 -10.58,75.29 -0.02,0.02 -0.03,0.04 -0.05,0.05 -4.27,4.81 -9.26,8.89 -14.76,12.12 -13.49,7.93 -30.01,10.72 -46.34,6.47 l -95.65,-24.84 c -2.49,-0.65 -4.89,-1.44 -7.22,-2.36 -2.17,-0.31 -4.35,-0.76 -6.53,-1.32 -32.68,-8.48 -52.29,-41.86 -43.8,-74.54 l 29.64,-114.13 c 2.5,-9.64 7.17,-18.13 13.35,-25.11 0.04,-0.05 0.08,-0.1 0.13,-0.15 4.35,-5.18 9.63,-9.7 15.79,-13.32 14.55,-8.55 31.19,-10.4 46.34,-6.46 15.15,3.93 28.79,13.64 37.34,28.19 z"
         id="path6" /><rect
         class="st6"
         x="210.41"
         y="175.61"
         width="92.489998"
         height="154"
         rx="46.240002"
         ry="46.240002"
         transform="rotate(-45,256.65457,252.6102)"
         id="rect6" /></g></g></svg>
